<?xml version="1.0" standalone="no"?>
<!DOCTYPE svg PUBLIC "-//W3C//DTD SVG 20010904//EN"
 "http://www.w3.org/TR/2001/REC-SVG-20010904/DTD/svg10.dtd">
<svg version="1.0" xmlns="http://www.w3.org/2000/svg"
 width="630.000000pt" height="630.000000pt" viewBox="0 0 630.000000 630.000000"
 preserveAspectRatio="xMidYMid meet">

<g transform="translate(0.000000,630.000000) scale(0.100000,-0.100000)"
fill="#000000" stroke="none">
<path d="M0 3150 l0 -3150 3150 0 3150 0 0 3150 0 3150 -3150 0 -3150 0 0
-3150z m3520 2525 c211 -33 485 -107 605 -164 l40 -19 -203 -1 c-112 -1 -234
-6 -272 -12 -64 -10 -71 -9 -117 14 -83 42 -233 79 -433 106 -114 16 -379 41
-435 41 -79 1 -34 16 100 34 179 24 184 24 405 21 120 -3 248 -11 310 -20z
m-882 -117 c103 -52 221 -159 292 -264 27 -42 50 -79 50 -82 0 -4 -24 -20 -53
-36 -87 -49 -365 -240 -478 -328 -210 -164 -393 -340 -507 -490 -9 -11 21 -2
85 27 320 140 740 220 1128 213 l170 -3 63 -185 c131 -384 235 -760 272 -978
11 -63 21 -116 23 -119 11 -11 423 958 464 1091 l17 56 54 0 c177 0 489 -160
864 -442 64 -48 120 -88 123 -88 16 0 -138 271 -251 440 -148 222 -363 469
-534 614 l-55 46 29 78 c42 112 67 205 62 224 -5 23 8 16 134 -70 672 -458
1085 -1203 1117 -2013 l6 -156 -53 -100 c-134 -257 -360 -481 -642 -636 -158
-88 -404 -169 -633 -209 -142 -25 -554 -35 -735 -19 -330 30 -728 111 -1019
207 -554 182 -1041 506 -1321 879 -95 126 -125 173 -193 310 -116 231 -196
546 -197 771 0 70 1 73 64 177 318 524 787 896 1391 1103 121 42 147 40 263
-18z m-1463 -3664 c301 -250 542 -409 867 -570 820 -409 1694 -475 2528 -190
85 29 179 62 208 74 28 12 52 20 52 18 0 -11 -168 -138 -275 -208 -807 -529
-1844 -556 -2678 -68 -411 240 -754 599 -973 1020 -48 91 -114 240 -129 288
-4 13 53 -37 137 -121 79 -79 197 -188 263 -243z"/>
</g>
</svg>
